<svg width="80" height="80" viewBox="0 0 80 80" fill="none" xmlns="http://www.w3.org/2000/svg">
<g clip-path="url(#clip0_175_507)">
<path d="M63.3335 66.6667H16.6668C15.7828 66.6667 14.9349 67.0179 14.3098 67.6431C13.6847 68.2682 13.3335 69.116 13.3335 70.0001C13.3335 70.8841 13.6847 71.732 14.3098 72.3571C14.9349 72.9822 15.7828 73.3334 16.6668 73.3334H63.3335C64.2175 73.3334 65.0654 72.9822 65.6905 72.3571C66.3156 71.732 66.6668 70.8841 66.6668 70.0001C66.6668 69.116 66.3156 68.2682 65.6905 67.6431C65.0654 67.0179 64.2175 66.6667 63.3335 66.6667Z" fill="black"/>
<path d="M16.6667 59.9999H16.9667L30.8667 58.7333C32.3893 58.5816 33.8135 57.9107 34.9 56.8333L64.9 26.8333C66.0644 25.6032 66.6937 23.9616 66.6499 22.2684C66.6062 20.5751 65.893 18.9683 64.6667 17.7999L55.5333 8.6666C54.3413 7.54692 52.7793 6.90446 51.1444 6.86144C49.5096 6.81842 47.916 7.37783 46.6667 8.43327L16.6667 38.4333C15.5892 39.5198 14.9184 40.9439 14.7667 42.4666L13.3333 56.3666C13.2884 56.8548 13.3518 57.347 13.5189 57.8079C13.686 58.2688 13.9527 58.6872 14.3 59.0333C14.6115 59.3422 14.9809 59.5866 15.387 59.7525C15.7931 59.9184 16.228 60.0025 16.6667 59.9999ZM50.9 13.3333L60 22.4333L53.3333 28.9333L44.4 19.9999L50.9 13.3333Z" fill="black"/>
</g>
<defs>
<clipPath id="clip0_175_507">
<rect width="80" height="80" fill="white"/>
</clipPath>
</defs>
</svg>
