<svg width="64" height="65" viewBox="0 0 64 65" fill="none" xmlns="http://www.w3.org/2000/svg">
<g clip-path="url(#clip0_459_1064)">
<path d="M46.3054 55.0712C46.0532 54.9707 45.7795 54.9125 45.4896 54.9125C45.1998 54.9125 44.9261 54.9707 44.6739 55.0712C44.4216 55.177 44.1909 55.3251 44.003 55.5155L43.9869 55.5261C43.8796 55.6319 43.7776 55.7536 43.6971 55.8858C43.6542 55.9546 43.6112 56.0286 43.5737 56.108H40.1872V53.2092C39.6666 53.4473 39.1245 53.6271 38.5717 53.7382C38.4751 53.7594 38.3839 53.7752 38.2873 53.7911V57.039C38.2873 57.2982 38.3946 57.5309 38.5664 57.7002C38.7381 57.8695 38.9743 57.9753 39.2372 57.9753H43.6059C43.6381 58.0387 43.6756 58.1022 43.7186 58.1657C43.7937 58.2768 43.8796 58.3826 43.9762 58.4778L43.9923 58.4936C44.1855 58.6841 44.4216 58.8428 44.6846 58.9486C44.9369 59.0491 45.2106 59.1073 45.5004 59.1073C45.7795 59.1073 46.0532 59.0544 46.3 58.9538L46.3161 58.9486C46.5791 58.8428 46.8099 58.6841 47.0085 58.4936C47.2017 58.3032 47.3627 58.0705 47.47 57.8113C47.572 57.5627 47.631 57.2929 47.631 57.0072C47.631 56.7269 47.572 56.4571 47.47 56.2032C47.3627 55.944 47.2017 55.7113 47.0085 55.5208C46.8045 55.3357 46.5684 55.177 46.3054 55.0712ZM30.822 35.2348H26.8505L26.2816 37.0756H22.7073L26.9739 25.9037H30.8059L35.0564 37.0756H31.3909L30.822 35.2348ZM30.0813 32.8121L28.8416 28.7972L27.5965 32.8121H30.0813ZM36.0439 25.8984H39.5592V37.0703H36.0439V25.8984ZM33.3659 14.4462C32.7862 14.8588 32.2496 15.4142 31.7826 16.1336C31.7612 16.1707 31.729 16.2024 31.6914 16.2236C31.5465 16.3135 31.3533 16.2712 31.2621 16.1336C30.7951 15.4142 30.2584 14.8588 29.6788 14.4462C29.0563 14.0019 28.3854 13.7215 27.6931 13.584H27.6823C27.0061 13.4465 26.3138 13.4465 25.6483 13.5628C24.9452 13.6845 24.2636 13.9384 23.6518 14.2875C23.0454 14.6366 22.4979 15.0863 22.0418 15.6047C21.6017 16.1072 21.2475 16.6838 21.0167 17.3027C20.9791 17.3979 20.9469 17.4984 20.9147 17.6042C20.8879 17.6994 20.8557 17.8052 20.8342 17.911C20.8074 18.0485 20.6893 18.149 20.539 18.1543C19.8199 18.2601 19.1061 18.5193 18.4406 18.9054C17.7644 19.3022 17.1364 19.8417 16.5944 20.4871C16.0577 21.1324 15.6069 21.8941 15.2849 22.7405C14.9843 23.5339 14.8018 24.4067 14.7643 25.3324C14.7589 25.4541 14.7589 25.5705 14.7589 25.6921C14.7589 25.8032 14.7643 25.9196 14.7643 26.0413C14.7696 26.1418 14.7267 26.2476 14.6355 26.311C14.1954 26.6231 13.7982 26.9458 13.444 27.2791C13.0844 27.6229 12.7678 27.9773 12.4941 28.3423C12.0486 28.94 11.7213 29.5642 11.5012 30.1937C11.2704 30.8496 11.1577 31.5214 11.147 32.1826C11.1416 32.8174 11.2275 33.4469 11.41 34.0552C11.5925 34.6741 11.8715 35.2771 12.2311 35.8378C12.4351 36.1605 12.6658 36.4779 12.9181 36.7741C13.1757 37.0756 13.4548 37.3612 13.7553 37.631C13.8304 37.6998 13.8734 37.8109 13.8519 37.9167C13.766 38.3187 13.7231 38.7154 13.707 39.1068C13.6963 39.5089 13.7177 39.9056 13.7714 40.2917C13.8734 41.0006 14.0827 41.6777 14.3779 42.3018C14.6891 42.9683 15.097 43.5767 15.5693 44.1109C16.0255 44.6346 16.5461 45.0895 17.1042 45.4651C17.6678 45.8459 18.2635 46.1422 18.8753 46.3485C19.149 46.4384 19.4281 46.5124 19.7125 46.5653C19.9809 46.6182 20.2492 46.65 20.5122 46.6606C20.6571 46.6553 20.7913 46.7558 20.8235 46.9039C20.963 47.5334 21.2206 48.1258 21.5748 48.6601C21.9452 49.2208 22.4121 49.718 22.9488 50.1306C23.625 50.649 24.4193 51.0404 25.2565 51.2467C26.0455 51.4425 26.8773 51.4795 27.6931 51.3102C28.423 51.1621 29.1314 50.8553 29.7862 50.3686C30.3873 49.919 30.9454 49.316 31.4123 48.5331C31.4392 48.4855 31.4821 48.4485 31.5358 48.422C31.686 48.3427 31.8739 48.4009 31.9544 48.549C32.3408 49.2578 32.8131 49.8238 33.339 50.2523C33.9079 50.7125 34.5359 51.0246 35.196 51.2044C36.0386 51.4319 36.9187 51.4319 37.7721 51.2573C38.6844 51.0722 39.5646 50.6807 40.3213 50.1412C40.9171 49.7233 41.443 49.2102 41.8616 48.6283C42.2588 48.0835 42.554 47.4752 42.7257 46.8351C42.7472 46.7135 42.8438 46.6077 42.9779 46.5865C43.7669 46.449 44.5451 46.1263 45.2589 45.6449C45.9727 45.1636 46.6221 44.5288 47.1534 43.7724C47.6418 43.0741 48.0335 42.2701 48.2858 41.392C48.5219 40.5721 48.6346 39.6834 48.5971 38.7472C48.5863 38.6414 48.6346 38.5356 48.7312 38.4721C49.1928 38.16 49.6007 37.832 49.9656 37.4988C50.3359 37.1497 50.6633 36.79 50.9424 36.4144C51.3717 35.8431 51.6884 35.2506 51.9084 34.6423C52.1338 34.0129 52.2519 33.3728 52.2734 32.7327C52.2895 32.1138 52.2143 31.5002 52.0533 30.8972C51.8923 30.2889 51.6401 29.7017 51.3127 29.1463L51.302 29.1357C51.0873 28.7708 50.835 28.4216 50.556 28.0831C50.2769 27.7445 49.9603 27.4272 49.6221 27.1256C49.5416 27.0569 49.4987 26.9458 49.5202 26.8347C49.5953 26.4697 49.6436 26.1047 49.6597 25.745C49.6758 25.38 49.6651 25.0203 49.6275 24.6659C49.547 23.9307 49.3484 23.2324 49.0586 22.5818C48.7527 21.8941 48.3448 21.2594 47.8672 20.7039C47.4056 20.1644 46.8743 19.6936 46.3054 19.3022C45.7365 18.9107 45.1301 18.6039 44.5129 18.3976L44.4968 18.3923C44.1694 18.2812 43.8366 18.2019 43.5093 18.149H43.4985C43.1765 18.0961 42.8545 18.0749 42.5379 18.0802C42.393 18.0908 42.2534 17.9956 42.2159 17.8475C42.1622 17.6306 42.0924 17.419 42.0119 17.2127C41.926 17.0011 41.8294 16.7948 41.7167 16.5885C41.4269 16.0596 41.0459 15.5729 40.6004 15.155C40.1442 14.7266 39.6236 14.3616 39.0655 14.0812C38.4912 13.7956 37.8633 13.5946 37.2193 13.5046C36.6075 13.42 35.9795 13.4306 35.3623 13.5575C34.67 13.7215 33.9884 14.0019 33.3659 14.4462ZM42.1407 20.4024C42.1783 20.286 42.2856 20.1961 42.4198 20.1855C42.6452 20.1697 42.876 20.1803 43.1068 20.2173C43.3429 20.2543 43.579 20.3125 43.8152 20.3918C44.2606 20.54 44.7061 20.7674 45.1193 21.0531C45.5272 21.3334 45.9136 21.6772 46.2464 22.0687L46.2517 22.0793C46.6006 22.4866 46.8958 22.9415 47.1158 23.4387C47.3251 23.9042 47.4647 24.4014 47.5237 24.9251C47.5613 25.2742 47.5613 25.6392 47.5183 26.0095C47.4808 26.3533 47.4002 26.7078 47.2768 27.0622L47.2714 27.0833C47.1963 27.3055 47.2017 27.5382 47.2714 27.7445C47.3466 27.9561 47.4861 28.1466 47.6847 28.2735L47.7008 28.2841C48.0765 28.5592 48.4092 28.8607 48.699 29.1781C48.9996 29.5007 49.2572 29.8499 49.4719 30.2096C49.708 30.6063 49.8905 31.0189 50.0032 31.4421C50.1213 31.8599 50.1749 32.2831 50.1588 32.701C50.1481 33.1348 50.0622 33.5685 49.9066 33.997C49.7563 34.4043 49.5363 34.8063 49.2465 35.1978L49.2411 35.203C48.9781 35.5575 48.6454 35.9066 48.2536 36.2398C47.8779 36.5572 47.4432 36.8587 46.9441 37.1497L46.928 37.1602C46.7294 37.2713 46.5845 37.4406 46.4986 37.6363C46.4127 37.832 46.3859 38.0489 46.4288 38.2605L46.4342 38.3028C46.5362 39.1121 46.4879 39.8844 46.3215 40.588C46.139 41.355 45.8224 42.0426 45.4091 42.6298C45.0925 43.0794 44.7275 43.4656 44.3358 43.7724C43.9332 44.0898 43.4985 44.3225 43.0531 44.4653H43.0477C42.8867 44.5129 42.7096 44.423 42.6613 44.2643C42.0548 42.3124 41.0083 41.6829 39.2372 40.7837L39.1997 40.7625C38.9528 40.6462 38.6844 40.6356 38.4429 40.7096C38.2014 40.7837 37.9921 40.9477 37.8687 41.1857L37.8526 41.2174C37.7345 41.4608 37.7238 41.7253 37.7989 41.9633C37.8794 42.2013 38.0512 42.4129 38.298 42.5399C39.7793 43.2857 40.8741 43.8517 40.858 45.682C40.8527 46.2268 40.6809 46.7558 40.3911 47.2318C40.0852 47.7344 39.6451 48.184 39.1353 48.549C38.6147 48.9193 38.0297 49.189 37.4286 49.3213C36.8543 49.4535 36.264 49.4588 35.7112 49.3107C34.7774 49.0568 34.1709 48.4432 33.763 47.6973C33.3766 46.9885 33.1619 46.1633 33.0063 45.4122C32.9956 45.3857 32.9956 45.354 32.9956 45.3276C32.9956 44.9467 32.695 44.6981 32.3032 44.587C32.1315 44.5341 31.9436 44.5129 31.7612 44.5129C31.5733 44.5129 31.3909 44.5394 31.2191 44.587C30.8327 44.7034 30.5322 44.952 30.5322 45.3276C30.5322 45.354 30.5268 45.3752 30.5214 45.4016C30.2209 46.5759 29.7862 47.4593 29.2763 48.0941C28.6806 48.8399 27.9829 49.2472 27.2637 49.3953C26.7378 49.5011 26.1957 49.4747 25.6805 49.3424C25.1384 49.1996 24.6232 48.9404 24.1724 48.6019C23.727 48.2581 23.3566 47.8402 23.099 47.3694C22.8522 46.9198 22.7073 46.4225 22.7073 45.9147C22.7073 43.9893 23.888 43.3439 25.4497 42.5557C25.6966 42.4288 25.8683 42.2172 25.9488 41.9792C26.0293 41.7358 26.0133 41.4661 25.8898 41.2174C25.761 40.9741 25.5463 40.8048 25.3048 40.7255C25.0633 40.6514 24.795 40.662 24.5481 40.7784L24.532 40.7837C22.6912 41.7094 21.5909 42.3865 20.9308 44.4019C20.8932 44.5341 20.7644 44.6346 20.6195 44.6293C20.4371 44.624 20.2546 44.6029 20.0667 44.5658C19.8843 44.5288 19.7018 44.4812 19.5301 44.4177C19.0953 44.2696 18.6606 44.0527 18.2527 43.7777C17.8502 43.5026 17.4745 43.1746 17.1418 42.7938C16.7983 42.4023 16.5031 41.9633 16.2777 41.4819C16.0631 41.0323 15.9128 40.5509 15.8377 40.0484V40.0378C15.784 39.6676 15.7732 39.2814 15.8162 38.8847C15.8538 38.5144 15.9343 38.1283 16.0684 37.7474L16.0738 37.7315C16.1489 37.5146 16.1436 37.2872 16.0792 37.0862L16.0738 37.0756C16.004 36.864 15.8645 36.6789 15.6713 36.5466L15.6605 36.536C15.3171 36.2821 15.0058 36.0124 14.7321 35.7161C14.453 35.4199 14.2061 35.1025 14.0022 34.7746C13.7553 34.3778 13.5621 33.9547 13.4333 33.5209C13.3099 33.0977 13.2455 32.664 13.2508 32.2196C13.2562 31.77 13.3367 31.3098 13.4977 30.8602C13.6533 30.4317 13.8787 30.0033 14.19 29.5854C14.453 29.231 14.775 28.8818 15.1614 28.5486C15.5317 28.2259 15.9504 27.9191 16.4334 27.6282C16.6105 27.5224 16.7393 27.3743 16.8252 27.205L16.8305 27.1891C16.9164 27.0146 16.9486 26.8188 16.9218 26.6231C16.9164 26.602 16.9164 26.5808 16.9164 26.5596V26.5491C16.8896 26.3639 16.8735 26.1788 16.8627 25.9989C16.852 25.8032 16.852 25.6075 16.8574 25.4171C16.8842 24.7241 17.0184 24.0735 17.2384 23.4863C17.4745 22.8569 17.8073 22.2909 18.2044 21.8095C18.5318 21.4128 18.9075 21.0795 19.2993 20.8203C19.6911 20.5611 20.1043 20.376 20.5283 20.2702C20.6893 20.2226 20.8664 20.3125 20.9147 20.4712C21.2475 21.508 21.6661 22.1586 22.4657 22.8939L22.4979 22.9203C22.6965 23.1002 22.9541 23.1848 23.2064 23.1742C23.4586 23.1637 23.7055 23.0631 23.888 22.8674L23.9041 22.8463C24.0865 22.6506 24.1724 22.3966 24.1617 22.148C24.1509 21.8994 24.0436 21.6508 23.8397 21.4604C23.1956 20.8732 23.0507 20.5082 22.8575 19.9158C22.6321 19.2334 22.6697 18.5669 22.8897 17.9744C23.04 17.5671 23.2761 17.1863 23.5767 16.853C23.8719 16.5198 24.2314 16.2236 24.6286 15.9961L24.6447 15.9855C25.0526 15.7528 25.4927 15.5835 25.9488 15.4989C26.3836 15.4195 26.829 15.4142 27.2637 15.5041C27.8756 15.6311 28.4766 15.9485 29.008 16.4986C29.4749 16.98 29.8881 17.6465 30.2155 18.5246L30.2209 18.5352C30.3336 18.879 30.6985 19.08 31.1279 19.1593C31.3211 19.1964 31.525 19.2069 31.7236 19.1964H31.729C31.9329 19.1858 32.1261 19.1488 32.3086 19.0906C32.6306 18.9848 32.8829 18.8155 32.9419 18.5986V18.477C32.9419 17.8634 33.3122 17.2127 33.8221 16.6785C34.3802 16.0966 35.1262 15.6364 35.7541 15.5094C36.1513 15.4301 36.5538 15.4248 36.9456 15.483C37.3535 15.5465 37.7506 15.6734 38.1263 15.8586L38.1585 15.8691C38.5395 16.0596 38.8884 16.3029 39.1943 16.5885C39.4948 16.8742 39.7525 17.1969 39.9457 17.5513C40.2516 18.1067 40.3911 18.7415 40.2945 19.4132C40.2086 20.0004 40.1872 20.3707 39.688 20.9578L39.6827 20.9631C39.5056 21.1694 39.4304 21.4286 39.4519 21.6825C39.4734 21.9259 39.5861 22.1639 39.7847 22.3332L39.8169 22.3596C40.0262 22.5289 40.2838 22.5977 40.536 22.5765C40.7829 22.5553 41.0244 22.4443 41.1961 22.2485L41.223 22.2115C41.7382 21.6085 41.9046 21.1641 42.1407 20.4024ZM53.9264 46.2903C53.8244 46.0417 53.7654 45.7719 53.7654 45.4862C53.7654 45.2006 53.8244 44.9308 53.9264 44.6822C54.0337 44.4336 54.184 44.2061 54.3772 44.021L54.3879 44.0051C54.4953 43.8993 54.6187 43.7988 54.7529 43.7195C54.8226 43.6772 54.8978 43.6348 54.9783 43.5978V40.26H50.8136C50.819 40.0431 50.819 39.8263 50.8082 39.6041C50.7975 39.4824 50.8512 39.3608 50.9585 39.292C51.3878 39.0011 51.7796 38.6995 52.1338 38.3874H55.9228C56.1858 38.3874 56.422 38.4932 56.5937 38.6625C56.7654 38.8318 56.8728 39.0645 56.8728 39.3237V43.6296C56.9372 43.6613 57.0016 43.6983 57.066 43.7406C57.1787 43.8147 57.286 43.8993 57.3826 43.9945L57.3987 44.0104C57.5919 44.2008 57.753 44.4336 57.8603 44.6928C57.9623 44.9414 58.0213 45.2112 58.0213 45.4968C58.0213 45.7719 57.9676 46.0364 57.8657 46.285L57.8603 46.3009C57.753 46.5601 57.5919 46.7875 57.3987 46.9832C57.2055 47.1737 56.9694 47.3324 56.7064 47.4381C56.4542 47.5387 56.1805 47.5968 55.8906 47.5968C55.6062 47.5968 55.3325 47.5387 55.0749 47.4381C54.8119 47.3324 54.5758 47.1737 54.3826 46.9832C54.1947 46.7822 54.0337 46.5495 53.9264 46.2903ZM59.9587 35.5786H54.2967C54.3933 35.3723 54.4792 35.166 54.5543 34.9544C54.7046 34.5418 54.8119 34.1239 54.8763 33.7061H59.9587C59.9963 33.6373 60.0339 33.5685 60.0768 33.4998C60.1573 33.3728 60.2539 33.2564 60.3559 33.1559C60.5545 32.9602 60.7852 32.8068 61.0482 32.701C61.3005 32.6005 61.5742 32.5423 61.864 32.5423C62.1431 32.5423 62.4114 32.5952 62.6636 32.6957L62.6797 32.701C62.9427 32.8068 63.1735 32.9655 63.3721 33.1559C63.5653 33.3464 63.7263 33.5791 63.8336 33.8383C63.9356 34.0869 63.9946 34.3567 63.9946 34.6423C63.9946 34.9227 63.9356 35.1925 63.8336 35.4464C63.7263 35.7056 63.5653 35.9383 63.3721 36.1287C63.1789 36.3192 62.9427 36.4779 62.6797 36.5837C62.4275 36.6842 62.1538 36.7423 61.864 36.7423C61.5849 36.7423 61.3166 36.6894 61.0643 36.5889L61.0482 36.5837C60.7852 36.4779 60.5545 36.3192 60.3559 36.1287C60.2539 36.0282 60.1627 35.9172 60.0822 35.7955L60.0714 35.7796C60.0339 35.7161 59.9963 35.6474 59.9587 35.5786ZM61.762 30.4582H54.6402C54.4577 29.8657 54.2001 29.2891 53.8781 28.739L53.8673 28.7231C53.8405 28.6755 53.8137 28.6332 53.7868 28.5856H60.8174V22.476C60.7638 22.4443 60.7101 22.4125 60.6564 22.3755C60.5491 22.3014 60.4525 22.2221 60.3613 22.1322C60.168 21.9417 60.007 21.709 59.8997 21.4498C59.7977 21.2012 59.7387 20.9314 59.7387 20.6458C59.7387 20.3654 59.7977 20.0903 59.8997 19.8417C60.007 19.5825 60.168 19.3551 60.3613 19.1593C60.5545 18.9689 60.7906 18.8102 61.0536 18.7044C61.3058 18.6039 61.5795 18.5457 61.8693 18.5457C62.1538 18.5457 62.4275 18.6039 62.6851 18.7044C62.9481 18.8102 63.1842 18.9689 63.3774 19.1593C63.5706 19.3498 63.7317 19.5825 63.839 19.8417C63.941 20.0903 64 20.3601 64 20.6458C64 20.9208 63.9463 21.1853 63.8444 21.4339L63.839 21.4498C63.7317 21.709 63.5706 21.9364 63.3774 22.1322C63.2594 22.2485 63.1198 22.3543 62.9749 22.4443C62.8944 22.4919 62.8032 22.5395 62.7173 22.5765V29.5166C62.7173 29.7758 62.61 30.0085 62.4382 30.1778C62.2611 30.3524 62.025 30.4582 61.762 30.4582ZM54.3182 25.9408H51.8923C51.9567 25.5916 51.9943 25.2425 52.0104 24.8934C52.0211 24.613 52.0211 24.338 52.005 24.0682H53.3682V21.307C53.2931 21.2699 53.2233 21.2329 53.1535 21.1853C53.0247 21.106 52.9067 21.0107 52.794 20.8997C52.6008 20.7092 52.4397 20.4765 52.3324 20.2173C52.2304 19.9687 52.1714 19.6989 52.1714 19.4185C52.1714 19.1382 52.2304 18.8684 52.3324 18.6145C52.4397 18.3659 52.59 18.1384 52.7779 17.948L52.794 17.9321C52.9872 17.7417 53.2233 17.583 53.4863 17.4772C53.7385 17.3767 54.0122 17.3185 54.3021 17.3185C54.5919 17.3185 54.8656 17.3767 55.1178 17.4772C55.3701 17.583 55.6008 17.7311 55.794 17.9215L55.8101 17.9321C56.0034 18.1226 56.159 18.3447 56.2663 18.5986L56.2717 18.6145C56.3737 18.8631 56.4327 19.1329 56.4327 19.4185C56.4327 19.6989 56.3737 19.974 56.2717 20.2226C56.1644 20.4712 56.0141 20.6986 55.8262 20.8891L55.8101 20.9049C55.7082 21.0055 55.5955 21.0954 55.4667 21.18C55.4023 21.2223 55.3379 21.2594 55.2681 21.2911V25.0045C55.2681 25.2637 55.1608 25.4964 54.989 25.6657C54.8173 25.835 54.5758 25.9408 54.3182 25.9408ZM16.7071 9.92879C16.9593 10.0293 17.233 10.0875 17.5229 10.0875C17.8127 10.0875 18.0864 10.0293 18.3386 9.92879C18.5909 9.823 18.8216 9.67489 19.0095 9.48446L19.0256 9.47388C19.1329 9.36808 19.2349 9.24642 19.3154 9.11418C19.3583 9.04541 19.4013 8.97135 19.4388 8.89201H22.8253V11.7749C23.421 11.4628 24.0651 11.2354 24.7252 11.1031V7.95573C24.7252 7.69653 24.6179 7.46379 24.4461 7.29451C24.2744 7.12524 24.0382 7.01945 23.7753 7.01945H19.4066C19.3744 6.95597 19.3369 6.8925 19.2939 6.82902C19.2188 6.71794 19.1329 6.61214 19.0363 6.51693L19.0202 6.50106C18.827 6.31063 18.5909 6.15194 18.3279 6.04614C18.0756 5.94564 17.8019 5.88745 17.5121 5.88745C17.233 5.88745 16.9593 5.94035 16.7125 6.04085L16.6964 6.04614C16.4334 6.15194 16.2026 6.31063 16.004 6.50106C15.8108 6.69149 15.6498 6.92423 15.5425 7.18343C15.4405 7.43205 15.3815 7.70182 15.3815 7.98747C15.3815 8.26782 15.4405 8.5376 15.5425 8.7915C15.6498 9.0507 15.8108 9.28345 16.004 9.47388C16.2133 9.66431 16.4441 9.823 16.7071 9.92879ZM27.5804 3.98315V11.2089C28.2137 11.3888 28.8309 11.6744 29.4105 12.087L29.4749 12.1346C29.4749 12.1187 29.4803 12.1029 29.4803 12.087V3.98315C29.55 3.94613 29.6198 3.9091 29.6896 3.86678C29.8184 3.78743 29.9364 3.69222 30.0384 3.59172C30.2316 3.396 30.3926 3.16854 30.5 2.90934C30.6019 2.66073 30.661 2.39095 30.661 2.10531C30.661 1.83024 30.6073 1.56576 30.5053 1.31714L30.5 1.30127C30.3926 1.04207 30.2316 0.814616 30.0384 0.618896C29.8452 0.428467 29.6091 0.269775 29.3461 0.163981C29.0938 0.0634766 28.8201 0.00528971 28.5303 0.00528971C28.2459 0.00528971 27.9722 0.0634766 27.7145 0.163981C27.4516 0.269775 27.2154 0.428467 27.0222 0.618896C26.829 0.809326 26.668 1.04207 26.5607 1.30127C26.4587 1.54989 26.3997 1.81966 26.3997 2.10531C26.3997 2.38037 26.4533 2.64486 26.5553 2.89347L26.5607 2.90934C26.668 3.16854 26.829 3.396 27.0222 3.59172C27.1242 3.69222 27.2369 3.78215 27.3603 3.86149L27.3711 3.86678C27.4408 3.9091 27.5052 3.94613 27.5804 3.98315ZM32.7701 2.20581V12.7747C33.0278 12.5155 33.3015 12.288 33.5805 12.087C33.9294 11.8384 34.2943 11.6321 34.67 11.4734V3.1368H40.8688C40.901 3.1897 40.9332 3.24259 40.9707 3.29549C41.0459 3.40129 41.1264 3.4965 41.2176 3.58643C41.4108 3.77686 41.647 3.93555 41.9099 4.04134C42.1622 4.14185 42.4359 4.20003 42.7257 4.20003C43.0101 4.20003 43.2892 4.14185 43.5415 4.04134C43.8044 3.93555 44.0406 3.77686 44.2338 3.58643C44.427 3.396 44.588 3.16325 44.6953 2.90405C44.7973 2.65544 44.8563 2.38566 44.8563 2.10002C44.8563 1.81966 44.7973 1.54989 44.6953 1.29598C44.588 1.03678 44.427 0.804036 44.2338 0.613607C44.0299 0.423177 43.7937 0.264486 43.5307 0.158691C43.2785 0.0581869 43.0048 0 42.7203 0C42.4413 0 42.1729 0.0528971 41.9207 0.153402L41.9046 0.158691C41.6416 0.264486 41.4108 0.423177 41.2122 0.613607C41.0942 0.72998 40.9868 0.867513 40.8956 1.01034C40.8473 1.08968 40.799 1.17961 40.7614 1.26424H33.7201C33.4571 1.26424 33.221 1.37004 33.0492 1.53931C32.8775 1.71387 32.7701 1.94661 32.7701 2.20581ZM37.3535 9.54264V10.992C37.5467 11.0026 37.7452 11.0185 37.9384 11.0502C38.3893 11.1137 38.8293 11.2248 39.2533 11.3782V10.4842H42.0548C42.0924 10.5583 42.13 10.627 42.1783 10.6958C42.2588 10.8228 42.3554 10.9391 42.4681 11.0502C42.6613 11.2406 42.8974 11.3993 43.1604 11.5051C43.4127 11.6056 43.6864 11.6638 43.9708 11.6638C44.2553 11.6638 44.529 11.6056 44.7866 11.5051C45.0388 11.3993 45.2696 11.2512 45.4628 11.0661L45.4789 11.0502C45.6721 10.8598 45.8331 10.627 45.9405 10.3678C46.0424 10.1192 46.1015 9.84945 46.1015 9.5638C46.1015 9.27816 46.0424 9.00838 45.9405 8.75976C45.8331 8.51115 45.6828 8.28369 45.4896 8.09326L45.4789 8.07739C45.2857 7.88696 45.0603 7.73356 44.8027 7.62777L44.7866 7.62248C44.5343 7.52197 44.2606 7.46379 43.9708 7.46379C43.6864 7.46379 43.4073 7.52197 43.1551 7.62248C42.9028 7.72827 42.672 7.87638 42.4788 8.06152L42.4627 8.07739C42.3608 8.1779 42.2695 8.28898 42.1836 8.41593C42.1407 8.47941 42.1031 8.54289 42.0709 8.61165H38.3034C38.0404 8.61165 37.8043 8.71745 37.6325 8.88672C37.4608 9.0507 37.3535 9.28345 37.3535 9.54264ZM10.0736 18.6198C10.1756 18.8684 10.2346 19.1382 10.2346 19.4238C10.2346 19.7095 10.1756 19.9792 10.0736 20.2279C9.96629 20.4765 9.81602 20.7039 9.62281 20.8891L9.61207 20.9049C9.50474 21.0107 9.3813 21.1112 9.24713 21.1906C9.17736 21.2329 9.10222 21.2752 9.02172 21.3123V24.6501H12.537V24.814C12.537 24.941 12.5424 25.0732 12.5478 25.2108C12.5585 25.3271 12.5048 25.4435 12.4029 25.5176C11.9413 25.8403 11.5281 26.1788 11.1524 26.5226H8.08252C7.81954 26.5226 7.5834 26.4168 7.41166 26.2476C7.23992 26.0783 7.13258 25.8455 7.13258 25.5863V21.2805C7.06818 21.2488 7.00377 21.2118 6.93937 21.1694C6.82667 21.0954 6.71933 21.0107 6.62273 20.9155L6.60662 20.8997C6.41342 20.7092 6.25241 20.4765 6.14507 20.2173C6.0431 19.9687 5.98407 19.6989 5.98407 19.4132C5.98407 19.1382 6.03774 18.8737 6.13971 18.6251L6.14507 18.6092C6.25241 18.35 6.41342 18.1226 6.60662 17.9268C6.79983 17.7364 7.03597 17.5777 7.29895 17.4719C7.5512 17.3714 7.82491 17.3132 8.11472 17.3132C8.39916 17.3132 8.67287 17.3714 8.93048 17.4719C9.19346 17.5777 9.4296 17.7364 9.62281 17.9268C9.80528 18.1278 9.96629 18.3606 10.0736 18.6198ZM4.04126 29.3315H9.08612C9.00025 29.5219 8.92511 29.7176 8.85535 29.908C8.70507 30.3365 8.59774 30.765 8.53333 31.1987H4.04126C4.00369 31.2675 3.96612 31.3363 3.92319 31.405C3.84268 31.532 3.74608 31.6484 3.64411 31.7489C3.44553 31.9446 3.21476 32.098 2.95178 32.2038C2.69954 32.3043 2.42583 32.3625 2.13602 32.3625C1.85694 32.3625 1.5886 32.3096 1.33635 32.2091L1.32025 32.2038C1.05727 32.098 0.826499 31.9393 0.627925 31.7489C0.434717 31.5584 0.273711 31.3257 0.166373 31.0665C0.0644025 30.8179 0.00536688 30.5481 0.00536688 30.2624C0.00536688 29.9821 0.0644025 29.7123 0.166373 29.4584C0.273711 29.1992 0.434717 28.9665 0.627925 28.776C0.821132 28.5856 1.05727 28.4269 1.32025 28.3211C1.57249 28.2206 1.84621 28.1624 2.13602 28.1624C2.41509 28.1624 2.68344 28.2153 2.93568 28.3158L2.95178 28.3211C3.21476 28.4269 3.44553 28.5856 3.64411 28.776C3.74608 28.8765 3.83732 28.9876 3.91782 29.1093L3.92855 29.1252C3.96612 29.1939 4.00369 29.2627 4.04126 29.3315ZM2.23799 34.4519H8.80168C9.00562 35.092 9.3008 35.7109 9.67648 36.298V36.3033L9.68721 36.3245H3.18256V42.4341C3.23623 42.4658 3.2899 42.4976 3.34356 42.5346C3.4509 42.6086 3.54751 42.688 3.63874 42.7779C3.83195 42.9683 3.99296 43.2011 4.10029 43.4603C4.20226 43.7089 4.2613 43.9787 4.2613 44.2643C4.2613 44.5447 4.20226 44.8197 4.10029 45.0684C3.99296 45.3275 3.83195 45.555 3.63874 45.7507C3.44553 45.9412 3.20939 46.0998 2.94641 46.2056C2.69417 46.3061 2.42046 46.3643 2.13065 46.3643C1.84621 46.3643 1.57249 46.3061 1.31488 46.2056C1.05191 46.0998 0.815765 45.9412 0.622558 45.7507C0.42935 45.5444 0.268344 45.3117 0.161006 45.0578C0.0590356 44.8092 0 44.5394 0 44.2537C0 43.9787 0.0536688 43.7142 0.155639 43.4656L0.161006 43.4497C0.268344 43.1905 0.42935 42.9631 0.622558 42.7673C0.740629 42.651 0.880168 42.5452 1.02507 42.4552C1.10558 42.4076 1.19681 42.36 1.28268 42.323V35.3829C1.28268 35.1237 1.39002 34.8909 1.56176 34.7217C1.73887 34.5577 1.97501 34.4519 2.23799 34.4519ZM9.68184 38.9693H11.4529C11.3939 39.3184 11.3617 39.6623 11.3509 40.0008C11.3402 40.2865 11.3456 40.5668 11.367 40.8419H10.6318V43.6031C10.7069 43.6401 10.7767 43.6772 10.8465 43.7248C10.9753 43.8041 11.0933 43.8993 11.206 44.0104C11.3992 44.2008 11.5603 44.4336 11.6676 44.6928C11.7696 44.9414 11.8286 45.2112 11.8286 45.4968C11.8286 45.7825 11.7696 46.047 11.6676 46.3009C11.5603 46.5495 11.41 46.7769 11.2221 46.9674L11.206 46.9832C11.0128 47.1737 10.7767 47.3324 10.5137 47.4381C10.2615 47.5387 9.98776 47.5968 9.69794 47.5968C9.40813 47.5968 9.13442 47.5387 8.88218 47.4381C8.62994 47.3324 8.39916 47.1842 8.20595 46.9938L8.18985 46.9832C7.99665 46.7928 7.84101 46.5706 7.73367 46.3167L7.7283 46.3009C7.62633 46.0522 7.5673 45.7825 7.5673 45.4968C7.5673 45.2165 7.62633 44.9414 7.7283 44.6928C7.83564 44.4442 7.98591 44.2167 8.17375 44.0263L8.18985 44.0104C8.29182 43.9099 8.40453 43.82 8.53333 43.7353C8.59774 43.693 8.66214 43.656 8.73191 43.6243V39.9109C8.73191 39.6517 8.83925 39.4189 9.01099 39.2497C9.18273 39.0698 9.41887 38.9693 9.68184 38.9693ZM35.4375 61.0168V53.6165C34.7666 53.4102 34.1333 53.077 33.5537 52.6062L33.543 52.5956V61.0221C33.4732 61.0592 33.4034 61.0962 33.3337 61.1385C33.2049 61.2178 33.0868 61.3131 32.9848 61.4136C32.7916 61.6093 32.6306 61.8367 32.5233 62.0959C32.4213 62.3446 32.3623 62.6143 32.3623 62.9C32.3623 63.175 32.4159 63.4395 32.5179 63.6881L32.5233 63.704C32.6306 63.9632 32.7916 64.1907 32.9848 64.3864C33.178 64.5768 33.4142 64.7355 33.6771 64.8413C33.9294 64.9418 34.2031 65 34.4929 65C34.7774 65 35.0511 64.9418 35.3087 64.8413C35.5717 64.7355 35.8078 64.5768 36.001 64.3864C36.1942 64.196 36.3552 63.9632 36.4626 63.704C36.5645 63.4554 36.6236 63.1856 36.6236 62.9C36.6236 62.6249 36.5699 62.3604 36.4679 62.1118L36.4626 62.0959C36.3552 61.8367 36.1942 61.6093 36.001 61.4136C35.899 61.3131 35.7863 61.2231 35.6629 61.1438L35.6468 61.1332C35.577 61.0909 35.5073 61.0539 35.4375 61.0168ZM30.2423 62.7942V52.1301C30.0169 52.3576 29.7808 52.5586 29.5339 52.7437C29.1529 53.0294 28.7557 53.2568 28.3425 53.4367V61.8685H22.1437C22.1115 61.8156 22.0793 61.7627 22.0418 61.7098C21.9666 61.604 21.8861 61.5088 21.7949 61.4189C21.6017 61.2284 21.3655 61.0697 21.1026 60.9639C20.8503 60.8634 20.5766 60.8053 20.2868 60.8053C20.0023 60.8053 19.7233 60.8634 19.471 60.9639C19.208 61.0697 18.9773 61.2284 18.7787 61.4189C18.5855 61.6093 18.4245 61.842 18.3171 62.1012C18.2152 62.3498 18.1561 62.6196 18.1561 62.9053C18.1561 63.1856 18.2152 63.4554 18.3171 63.7093C18.4245 63.9685 18.5855 64.2012 18.7787 64.3917C18.9719 64.5821 19.208 64.7408 19.471 64.8466C19.7233 64.9471 19.997 65.0053 20.2868 65.0053C20.5659 65.0053 20.8342 64.9524 21.0865 64.8519L21.1026 64.8466C21.3655 64.7408 21.5963 64.5821 21.7949 64.3917C21.913 64.2753 22.0203 64.1378 22.1115 63.995C22.1598 63.9156 22.2081 63.8257 22.2457 63.741H29.287C29.55 63.741 29.7862 63.6353 29.9579 63.466C30.135 63.2861 30.2423 63.0534 30.2423 62.7942ZM25.659 55.4574V53.918C25.2404 53.8969 24.8218 53.8334 24.4139 53.7329C24.1939 53.68 23.9738 53.6112 23.7592 53.5372V54.5264H20.9577C20.9201 54.4523 20.8825 54.3835 20.8342 54.3148C20.7537 54.1878 20.6571 54.0714 20.5444 53.9604C20.3512 53.7699 20.1151 53.6112 19.8521 53.5054C19.5998 53.4049 19.3261 53.3468 19.0417 53.3468C18.7572 53.3468 18.4835 53.4049 18.2259 53.5054C17.9737 53.6112 17.7429 53.7594 17.5497 53.9445L17.5336 53.9551C17.3404 54.1455 17.1794 54.3783 17.072 54.6374C16.9701 54.8861 16.911 55.1558 16.911 55.4415C16.911 55.7271 16.9701 55.9969 17.072 56.2455C17.1794 56.4941 17.3296 56.7216 17.5229 56.912L17.5336 56.9279C17.7268 57.1183 17.9522 57.2717 18.2098 57.3775L18.2259 57.3828C18.4782 57.4833 18.7519 57.5415 19.0417 57.5415C19.3261 57.5415 19.5998 57.4833 19.8574 57.3828C20.1097 57.277 20.3405 57.1289 20.5337 56.9438L20.5498 56.9279C20.6517 56.8274 20.743 56.7163 20.8288 56.5894C20.8718 56.5259 20.9093 56.4624 20.9416 56.3936H24.7091C24.9721 56.3936 25.2082 56.2878 25.38 56.1186C25.5517 55.9493 25.659 55.7165 25.659 55.4574Z" fill="black" fill-opacity="0.5"/>
</g>
<defs>
<clipPath id="clip0_459_1064">
<rect width="64" height="65" fill="white"/>
</clipPath>
</defs>
</svg>
