<svg width="80" height="80" viewBox="0 0 80 80" fill="none" xmlns="http://www.w3.org/2000/svg">
<path d="M66.6667 39.4333C65.7826 39.4333 64.9348 39.7845 64.3096 40.4096C63.6845 41.0348 63.3333 41.8826 63.3333 42.7667V61.3333C63.3333 61.8638 63.1226 62.3725 62.7475 62.7475C62.3725 63.1226 61.8638 63.3333 61.3333 63.3333H18.6667C18.1362 63.3333 17.6275 63.1226 17.2525 62.7475C16.8774 62.3725 16.6667 61.8638 16.6667 61.3333V18.6667C16.6667 18.1362 16.8774 17.6275 17.2525 17.2525C17.6275 16.8774 18.1362 16.6667 18.6667 16.6667H50.5667C51.4507 16.6667 52.2986 16.3155 52.9237 15.6904C53.5488 15.0652 53.9 14.2174 53.9 13.3333C53.9 12.4493 53.5488 11.6014 52.9237 10.9763C52.2986 10.3512 51.4507 10 50.5667 10H18.6667C16.3708 10.0088 14.1715 10.9247 12.5481 12.5481C10.9247 14.1715 10.0088 16.3708 10 18.6667V61.3333C10.0088 63.6292 10.9247 65.8285 12.5481 67.4519C14.1715 69.0753 16.3708 69.9912 18.6667 70H61.3333C63.6292 69.9912 65.8285 69.0753 67.4519 67.4519C69.0753 65.8285 69.9912 63.6292 70 61.3333V42.7667C70 41.8826 69.6488 41.0348 69.0237 40.4096C68.3986 39.7845 67.5507 39.4333 66.6667 39.4333Z" fill="black"/>
<path d="M35.7332 36.6667C35.1077 36.1042 34.2926 35.7989 33.4514 35.8123C32.6103 35.8256 31.8053 36.1565 31.1979 36.7386C30.5905 37.3206 30.2257 38.1108 30.1766 38.9507C30.1275 39.7905 30.3978 40.6178 30.9332 41.2667L38.3332 49.0334C38.643 49.3584 39.0153 49.6174 39.4277 49.795C39.8401 49.9726 40.2842 50.065 40.7332 50.0667C41.1798 50.0693 41.6224 49.9821 42.0347 49.8104C42.447 49.6386 42.8205 49.3857 43.1332 49.0667L65.7332 25.7334C66.0396 25.4182 66.2809 25.0458 66.4434 24.6373C66.6059 24.2289 66.6864 23.7924 66.6802 23.3529C66.674 22.9134 66.5813 22.4794 66.4073 22.0757C66.2334 21.672 65.9817 21.3065 65.6665 21C65.3514 20.6936 64.9789 20.4523 64.5705 20.2898C64.162 20.1273 63.7256 20.0469 63.286 20.0531C62.8465 20.0593 62.4125 20.152 62.0088 20.3259C61.6051 20.4998 61.2396 20.7515 60.9332 21.0667L40.7665 41.9334L35.7332 36.6667Z" fill="black"/>
</svg>
